<svg width="1080" height="1350" viewBox="0 0 1080 1350" fill="none" xmlns="http://www.w3.org/2000/svg">
  <defs>
    <linearGradient id="bg" x1="120" y1="80" x2="940" y2="1270" gradientUnits="userSpaceOnUse">
      <stop stop-color="#F8FBFF"/>
      <stop offset="1" stop-color="#E9F1F8"/>
    </linearGradient>
    <linearGradient id="accent" x1="240" y1="160" x2="884" y2="944" gradientUnits="userSpaceOnUse">
      <stop stop-color="#0F4C81"/>
      <stop offset="1" stop-color="#2D6AA0"/>
    </linearGradient>
    <filter id="shadow" x="0" y="0" width="1080" height="1350" filterUnits="userSpaceOnUse" color-interpolation-filters="sRGB">
      <feDropShadow dx="0" dy="18" stdDeviation="30" flood-color="#0F172A" flood-opacity="0.12"/>
    </filter>
  </defs>

  <rect width="1080" height="1350" rx="40" fill="url(#bg)"/>
  <circle cx="180" cy="132" r="160" fill="#DCEAF6"/>
  <circle cx="934" cy="1180" r="220" fill="#D9E8F3"/>

  <g filter="url(#shadow)">
    <rect x="82" y="82" width="916" height="1186" rx="34" fill="#FFFFFF"/>
  </g>

  <rect x="126" y="126" width="220" height="64" rx="20" fill="#EFF6FC"/>
  <text x="156" y="168" fill="#0F4C81" font-family="Arial, Helvetica, sans-serif" font-size="30" font-weight="700">ID Card Workspace</text>

  <text x="126" y="286" fill="#111827" font-family="Arial, Helvetica, sans-serif" font-size="84" font-weight="700">Create ID Cards</text>
  <text x="126" y="376" fill="#111827" font-family="Arial, Helvetica, sans-serif" font-size="84" font-weight="700">Fast and Clean</text>

  <text x="126" y="448" fill="#64748B" font-family="Arial, Helvetica, sans-serif" font-size="34">
    Upload your photo, fill in your details, and generate
  </text>
  <text x="126" y="494" fill="#64748B" font-family="Arial, Helvetica, sans-serif" font-size="34">
    a professional ID card in just a few steps.
  </text>

  <rect x="126" y="560" width="256" height="58" rx="18" fill="#EEF5FB"/>
  <rect x="402" y="560" width="220" height="58" rx="18" fill="#EEF5FB"/>
  <rect x="642" y="560" width="194" height="58" rx="18" fill="#EEF5FB"/>
  <text x="164" y="598" fill="#0F4C81" font-family="Arial, Helvetica, sans-serif" font-size="28" font-weight="700">Upload Photo</text>
  <text x="440" y="598" fill="#0F4C81" font-family="Arial, Helvetica, sans-serif" font-size="28" font-weight="700">Fill Details</text>
  <text x="680" y="598" fill="#0F4C81" font-family="Arial, Helvetica, sans-serif" font-size="28" font-weight="700">Get Card</text>

  <rect x="126" y="674" width="398" height="424" rx="30" fill="url(#accent)"/>
  <text x="164" y="754" fill="#FFFFFF" font-family="Arial, Helvetica, sans-serif" font-size="34" font-weight="700">Why people can use it</text>

  <circle cx="168" cy="830" r="10" fill="#FFFFFF"/>
  <text x="196" y="840" fill="#F8FBFF" font-family="Arial, Helvetica, sans-serif" font-size="30">Simple upload flow</text>

  <circle cx="168" cy="904" r="10" fill="#FFFFFF"/>
  <text x="196" y="914" fill="#F8FBFF" font-family="Arial, Helvetica, sans-serif" font-size="30">Clean card layout</text>

  <circle cx="168" cy="978" r="10" fill="#FFFFFF"/>
  <text x="196" y="988" fill="#F8FBFF" font-family="Arial, Helvetica, sans-serif" font-size="30">Fast record submission</text>

  <circle cx="168" cy="1052" r="10" fill="#FFFFFF"/>
  <text x="196" y="1062" fill="#F8FBFF" font-family="Arial, Helvetica, sans-serif" font-size="30">Professional output</text>

  <rect x="560" y="674" width="356" height="512" rx="28" fill="#F8FBFF" stroke="#D9E2EC" stroke-width="2"/>
  <rect x="590" y="706" width="296" height="62" rx="18" fill="#0F4C81"/>
  <text x="626" y="747" fill="#FFFFFF" font-family="Arial, Helvetica, sans-serif" font-size="28" font-weight="700">Share this with users</text>

  <rect x="608" y="808" width="128" height="158" rx="22" fill="#DCE7F1"/>
  <rect x="758" y="816" width="92" height="14" rx="7" fill="#C7D4E2"/>
  <rect x="758" y="850" width="108" height="14" rx="7" fill="#C7D4E2"/>
  <rect x="758" y="900" width="96" height="12" rx="6" fill="#D3DEE8"/>
  <rect x="758" y="930" width="74" height="12" rx="6" fill="#D3DEE8"/>
  <rect x="758" y="960" width="102" height="12" rx="6" fill="#D3DEE8"/>

  <rect x="608" y="1010" width="242" height="64" rx="18" fill="#EEF5FB"/>
  <text x="646" y="1052" fill="#0F4C81" font-family="Arial, Helvetica, sans-serif" font-size="28" font-weight="700">Open the ID Card page</text>

  <rect x="126" y="1140" width="790" height="82" rx="24" fill="#F8FAFC" stroke="#E2E8F0" stroke-width="2"/>
  <text x="160" y="1192" fill="#111827" font-family="Arial, Helvetica, sans-serif" font-size="34" font-weight="700">Use case:</text>
  <text x="322" y="1192" fill="#475569" font-family="Arial, Helvetica, sans-serif" font-size="32">
    Share with staff, students, visitors, or department teams.
  </text>

  <text x="126" y="1286" fill="#64748B" font-family="Arial, Helvetica, sans-serif" font-size="24">
    Powered by Aipexlabs | Share this card with people who need to upload details and get their ID cards made.
  </text>
</svg>
